<?xml version="1.0" standalone="no"?>
<!DOCTYPE svg PUBLIC "-//W3C//DTD SVG 20010904//EN"
        "http://www.w3.org/TR/2001/REC-SVG-20010904/DTD/svg10.dtd">
<svg version="1.0" xmlns="http://www.w3.org/2000/svg"
     width="512.000000pt" height="512.000000pt" viewBox="0 0 512.000000 512.000000"
     preserveAspectRatio="xMidYMid meet">
    <metadata>
        Created by potrace 1.14, written by Peter Selinger 2001-2017
    </metadata>
    <g transform="translate(0.000000,512.000000) scale(0.100000,-0.100000)"
       fill="#000000" stroke="none">
        <path d="M3565 4605 c-30 -30 -32 -64 -4 -99 36 -46 119 -28 133 29 7 29 -15
79 -39 89 -33 12 -66 5 -90 -19z"/>
        <path d="M1570 4377 c-13 -7 -31 -24 -39 -39 -14 -24 -14 -30 2 -62 27 -58
103 -62 132 -6 20 39 19 54 -7 84 -29 31 -57 39 -88 23z"/>
        <path d="M4277 4379 c-186 -29 -322 -217 -287 -399 22 -116 94 -209 198 -258
77 -36 212 -39 284 -5 113 52 195 168 205 292 19 225 -175 405 -400 370z"/>
        <path d="M3248 4280 c-149 -24 -310 -131 -385 -259 -69 -116 -106 -319 -69
-376 15 -23 22 -25 91 -25 162 0 288 52 399 164 108 108 165 245 166 392 0 83
-17 104 -90 109 -30 2 -80 0 -112 -5z"/>
        <path d="M2403 4249 c-12 -4 -25 -19 -29 -33 -5 -20 5 -37 49 -90 65 -76 119
-182 148 -292 27 -104 36 -323 19 -464 l-13 -104 -61 67 c-107 116 -236 200
-376 245 -115 37 -183 45 -323 39 -250 -10 -421 -79 -566 -227 -152 -155 -241
-413 -241 -697 l0 -103 -34 0 c-163 0 -324 -100 -397 -248 -30 -60 -34 -78
-37 -167 -5 -121 12 -196 70 -307 41 -79 169 -241 236 -300 22 -18 138 -124
260 -235 129 -118 229 -203 240 -203 11 0 42 20 69 45 l50 44 58 -81 c71 -99
227 -263 309 -324 76 -58 178 -110 253 -129 119 -31 291 -13 446 47 l78 30 48
-20 c148 -64 351 -89 470 -57 130 34 233 98 369 229 464 448 788 1365 697
1970 -20 133 -48 224 -103 331 -65 127 -191 253 -312 313 -122 60 -219 83
-380 89 -106 4 -155 2 -220 -11 -161 -33 -317 -109 -424 -207 l-56 -51 6 134
c14 285 -49 522 -181 690 -51 66 -89 90 -122 77z m-355 -755 c191 -43 387
-190 484 -361 49 -87 84 -84 143 13 53 87 183 211 276 263 153 85 327 120 502
101 366 -41 576 -252 637 -644 14 -88 14 -321 0 -433 -67 -542 -345 -1140
-677 -1453 -96 -91 -164 -137 -265 -178 -114 -46 -284 -31 -456 41 -83 34 -75
35 -229 -22 -152 -56 -304 -60 -419 -11 -125 54 -287 196 -409 358 -97 130
-95 122 -38 174 26 24 104 96 172 159 255 234 355 386 383 579 34 243 -118
457 -357 501 -156 29 -313 -33 -405 -160 l-43 -59 -42 56 c-44 61 -91 101
-148 128 -31 15 -37 23 -43 61 -9 59 12 270 36 371 75 312 280 491 606 532 84
10 207 4 292 -16z"/>
        <path d="M3510 2890 c-11 -11 -20 -27 -20 -35 0 -8 9 -24 20 -35 11 -11 27
-20 35 -20 8 0 24 9 35 20 11 11 20 27 20 35 0 8 -9 24 -20 35 -11 11 -27 20
-35 20 -8 0 -24 -9 -35 -20z"/>
        <path d="M3575 2730 c-17 -19 -17 -23 0 -116 61 -327 -109 -838 -365 -1095
-71 -71 -172 -129 -225 -129 -41 0 -70 -30 -61 -64 10 -39 37 -49 102 -37 253
47 526 430 636 896 18 74 22 122 22 270 1 184 -8 248 -40 280 -21 21 -47 19
-69 -5z"/>
        <path d="M764 3477 c-63 -55 -5 -156 73 -126 56 21 71 82 28 124 -30 31 -66
32 -101 2z"/>
        <path d="M4502 3327 c-47 -50 -15 -127 51 -127 69 0 101 77 52 125 -31 32 -74
33 -103 2z"/>
        <path d="M4355 1555 c-24 -24 -31 -57 -19 -90 10 -24 60 -46 89 -39 57 14 75
97 29 133 -35 28 -69 26 -99 -4z"/>
        <path d="M465 1455 c-32 -31 -33 -74 -2 -103 50 -47 127 -15 127 51 0 69 -77
101 -125 52z"/>
        <path d="M920 981 c-75 -24 -139 -82 -167 -150 -21 -50 -19 -140 4 -192 51
-113 179 -172 298 -139 56 16 132 81 156 135 22 48 25 151 5 199 -20 47 -73
104 -119 128 -44 22 -137 32 -177 19z"/>
        <path d="M1641 614 c-28 -35 -26 -69 4 -99 24 -24 57 -31 90 -19 24 10 46 60
39 89 -14 57 -97 75 -133 29z"/>
        <path d="M3860 620 c-45 -45 -9 -130 54 -130 36 0 76 41 76 78 0 61 -86 96
-130 52z"/>
    </g>
</svg>
